<?xml version="1.0" encoding="utf-8"?>
<!-- Generator: Adobe Illustrator 16.0.0, SVG Export Plug-In . SVG Version: 6.00 Build 0)  -->
<!DOCTYPE svg PUBLIC "-//W3C//DTD SVG 1.1//EN" "http://www.w3.org/Graphics/SVG/1.1/DTD/svg11.dtd">
<svg version="1.1" id="Layer_1" xmlns="http://www.w3.org/2000/svg" xmlns:xlink="http://www.w3.org/1999/xlink" x="0px" y="0px"
	 width="335.986px" height="235.19px" viewBox="0 0 335.986 235.19" enable-background="new 0 0 335.986 235.19"
	 xml:space="preserve">
<g>
	<g>
		<rect fill="#1F9EA1" width="335.986" height="235.189"/>
	</g>
</g>
<path fill="#21ADB0" d="M268.439,117.595c0,55.325-44.85,100.169-100.17,100.169c-55.315,0-100.165-44.844-100.165-100.169
	c0-55.326,44.85-100.17,100.165-100.17C223.59,17.425,268.439,62.269,268.439,117.595z"/>
<g opacity="0.1">
	<path fill="#1D1D1B" d="M48.987,201.451v-24.424c-13.493,0-24.43,10.934-24.43,24.424h-0.001c0,13.488,10.939,24.422,24.431,24.422
		h0h0c13.493,0,24.427-10.934,24.427-24.422H48.987L48.987,201.451z"/>
	<path fill="#1D1D1B" d="M52.752,173.262v24.426h24.429C77.181,184.195,66.242,173.262,52.752,173.262z"/>
	<rect x="315.354" y="28.825" fill="#1D1D1B" width="7.438" height="31.802"/>
	<rect x="304.574" y="21.655" fill="#1D1D1B" width="7.438" height="38.972"/>
	<rect x="293.793" y="34.721" fill="#1D1D1B" width="7.439" height="25.906"/>
	<rect x="283.014" y="41.627" fill="#1D1D1B" width="7.439" height="19"/>
	<rect x="272.234" y="28.825" fill="#1D1D1B" width="7.438" height="31.802"/>
	<polygon fill="#1D1D1B" points="268.033,63.725 268.033,21.53 264.033,21.53 264.033,67.725 323.828,67.725 323.828,63.725 	"/>
	<polygon fill="#1D1D1B" points="79.701,84.169 70.507,84.169 52.706,73.079 34.96,84.169 25.411,84.169 25.411,90.137 
		23.435,91.371 23.435,92.729 23.435,130.461 82.069,130.461 82.069,92.729 82.069,91.371 79.701,89.896 	"/>
	<path fill="#1D1D1B" d="M316.824,142.658c0-3.506-3.447-3.506-3.447-3.506s-38.477,0-67.094,0V78.963
		c0-3.369-2.748-6.122-6.117-6.122h-12.375c-2.162-16.438-19.742-29.254-41.107-29.254c-18.239,0-33.706,9.338-39.194,22.292
		c-6.33,1.102-12.014,3.556-16.547,6.962h-23.285c-3.367,0-6.12,2.753-6.12,6.122v82.105c0,0.293,0.028,0.578,0.068,0.861H88.123
		c-0.842,0-1.529,0.436-1.529,0.967c0,0.535,0.549,1.385,1.222,1.889l6.734,5.078c0.672,0.508,1.912,0.92,2.753,0.92h114.953v31.793
		c0,0-0.287,3.947,3.732,3.947c4.023,0,92.217,0,96.957,0c4.289,0,3.879-3.947,3.879-3.947S316.824,146.166,316.824,142.658z"/>
	<path fill="#1D1D1B" d="M128.529,55.755c3.82,0,6.916-4.281,6.916-7.67c0-2.943-2.342-6.934-5.469-7.527
		c1.251-1.843,2.009-3.972,2.009-6.271c0-6.777-6.19-12.275-13.827-12.275c-6.349,0-11.637,3.816-13.267,8.987
		c-1.884-1.75-4.53-2.852-7.473-2.852c-5.73,0-10.373,4.127-10.373,9.2c0,1.106,0.257,2.152,0.656,3.134
		c-0.219-0.017-0.433-0.064-0.656-0.064c-3.818,0-6.911,4.285-6.911,7.669c0,3.389,3.093,7.67,6.911,7.67H128.529z"/>
	<circle fill="#1D1D1B" cx="126.11" cy="203.651" r="19.438"/>
	<circle fill="#1D1D1B" cx="45.417" cy="38.882" r="19.439"/>
	<circle fill="#1D1D1B" cx="283.016" cy="104.339" r="19.439"/>
</g>
<g>
	<path fill="#FFCD61" d="M42.929,195.693V171.27c-13.493,0-24.43,10.934-24.43,24.424h-0.001c0,13.488,10.939,24.422,24.431,24.422
		l0,0h0h0l0,0c13.493,0,24.427-10.934,24.427-24.422H42.929L42.929,195.693z"/>
	<path fill="#2D3E50" d="M46.693,167.504v24.426h24.429C71.122,178.438,60.184,167.504,46.693,167.504z"/>
</g>
<rect x="309.295" y="23.067" fill="#2D3E50" width="7.438" height="31.802"/>
<rect x="298.516" y="15.897" fill="#F5F5F5" width="7.438" height="38.972"/>
<rect x="287.734" y="28.963" fill="#FFCD61" width="7.439" height="25.906"/>
<rect x="276.955" y="35.869" fill="#F5F5F5" width="7.439" height="19"/>
<rect x="266.176" y="23.067" fill="#2D3E50" width="7.438" height="31.802"/>
<g>
	<polygon fill="#2D3E50" points="317.77,61.967 257.975,61.967 257.975,15.772 261.975,15.772 261.975,57.967 317.77,57.967 	"/>
</g>
<g>
	<path fill="#2D3E50" d="M240.225,155.311c0,3.365-2.748,6.117-6.117,6.117H101.6c-3.367,0-6.12-2.752-6.12-6.117V73.205
		c0-3.369,2.753-6.122,6.12-6.122h132.508c3.369,0,6.117,2.753,6.117,6.122V155.311z"/>
	<rect x="102.399" y="76.74" fill="#F5F5F5" width="130.908" height="70.852"/>
	<path fill="#566C81" d="M247.816,164.135c-0.686,0.492-1.93,0.891-2.773,0.891H91.245c-0.842,0-2.081-0.412-2.753-0.92
		l-6.734-5.078c-0.673-0.504-1.222-1.354-1.222-1.889c0-0.531,0.688-0.967,1.529-0.967H253.92c0.838,0,1.529,0.561,1.529,1.244
		c0,0.686-0.559,1.646-1.244,2.139L247.816,164.135z"/>
	<polygon fill="#788C9B" points="142.103,156.172 148.056,161.428 188.035,161.428 194.111,156.172 	"/>
	<circle fill="#FEDBB6" cx="167.853" cy="72.383" r="2.26"/>
</g>
<g>
	<path fill="#5A6D84" d="M148.985,59.468c-19.327,0-34.992,12.38-34.992,27.66c0,11.005,8.127,20.504,19.893,24.955
		c-3.211,7.117-10.133,10.181-10.133,10.181c17.442,0.416,22.213-7.584,22.213-7.584l0.004-0.003c0.993,0.066,1.996,0.11,3.015,0.11
		c19.323,0,34.992-12.384,34.992-27.659C183.977,71.848,168.308,59.468,148.985,59.468z"/>
	<path fill="#FFCD61" d="M180.625,37.829c22.826,0,41.332,14.627,41.332,32.671c0,12.997-9.6,24.218-23.504,29.479
		c3.799,8.405,11.979,12.024,11.979,12.024c-20.607,0.489-26.242-8.956-26.242-8.956l-0.002-0.005
		c-1.176,0.081-2.361,0.128-3.562,0.128c-22.831,0-41.336-14.624-41.336-32.67C139.289,52.456,157.794,37.829,180.625,37.829z"/>
	<path fill="#F5F5F5" d="M157.024,71.083c0,3.053,2.478,5.534,5.532,5.534c3.056,0,5.531-2.481,5.531-5.534
		c0-3.057-2.476-5.53-5.531-5.53C159.501,65.553,157.024,68.026,157.024,71.083z"/>
	<path fill="#F5F5F5" d="M174.633,71.083c0,3.053,2.477,5.534,5.533,5.534c3.053,0,5.529-2.481,5.529-5.534
		c0-3.057-2.477-5.53-5.529-5.53C177.109,65.553,174.633,68.026,174.633,71.083z"/>
	<path fill="#F5F5F5" d="M192.504,71.083c0,3.053,2.479,5.534,5.535,5.534c3.053,0,5.531-2.481,5.531-5.534
		c0-3.057-2.479-5.53-5.531-5.53C194.982,65.553,192.504,68.026,192.504,71.083z"/>
</g>
<g>
	<polygon fill="#566C81" points="46.647,111.447 52.322,106.72 76.01,86.971 76.01,85.613 46.647,67.321 17.376,85.613 
		17.376,86.971 40.929,106.665 	"/>
	<rect x="19.352" y="78.411" fill="#F5F5F5" width="54.29" height="40.34"/>
	<polygon fill="#2D3E50" points="17.376,85.613 17.376,124.703 40.929,105.308 	"/>
	<polygon fill="#566C81" points="46.647,110.09 40.929,105.308 17.376,124.703 76.01,124.703 52.322,105.361 	"/>
	<polygon fill="#2D3E50" points="52.322,105.361 76.01,124.703 76.01,85.613 	"/>
</g>
<path fill="#2D3E50" d="M206.197,196.818v-59.625c0,0-0.287-3.799,3.732-3.799c4.023,0,97.389,0,97.389,0s3.447,0,3.447,3.506
	c0,3.508,0,59.918,0,59.918s0.41,3.947-3.879,3.947c-4.74,0-92.934,0-96.957,0C205.91,200.766,206.197,196.818,206.197,196.818z"/>
<rect x="212.102" y="138.312" fill="#FFFFFF" width="89.576" height="57.625"/>
<path fill="#E4E4E3" d="M302.008,137.98v58.289h-90.234V137.98H302.008 M301.348,138.641h-88.914v56.967h88.914V138.641z"/>
<path fill="#788C9B" d="M307.463,173.061c0,0.729-0.592,1.32-1.322,1.32s-1.322-0.592-1.322-1.32v-12.342
	c0-0.73,0.592-1.32,1.322-1.32s1.322,0.59,1.322,1.32V173.061z"/>
<rect x="263.902" y="154.594" fill="#566C81" width="26.629" height="3.939"/>
<rect x="263.902" y="161.441" fill="#566C81" width="21.777" height="3.939"/>
<rect x="263.902" y="168.287" fill="#566C81" width="26.629" height="3.939"/>
<rect x="263.902" y="175.133" fill="#566C81" width="26.629" height="3.941"/>
<rect x="263.902" y="181.98" fill="#566C81" width="26.629" height="3.939"/>
<rect x="154.957" y="121.707" fill="#566C81" width="26.631" height="3.939"/>
<rect x="148.457" y="128.553" fill="#566C81" width="39.631" height="3.941"/>
<rect x="148.457" y="135.4" fill="#566C81" width="39.631" height="3.939"/>
<circle fill="#5A6D84" cx="239.937" cy="170.258" r="17.917"/>
<rect x="211.773" y="137.98" fill="#21ADB0" width="90.234" height="5.555"/>
<g>
	<path fill="#F5F5F5" d="M123.917,34.8c1.251-1.843,2.009-3.972,2.009-6.271c0-6.777-6.19-12.275-13.827-12.275
		c-6.349,0-11.637,3.816-13.267,8.987c-1.884-1.75-4.53-2.852-7.473-2.852c-5.73,0-10.373,4.127-10.373,9.2
		c0,1.106,0.257,2.152,0.656,3.134c-0.219-0.017-0.433-0.064-0.656-0.064c-3.818,0-6.911,4.285-6.911,7.669
		c0,3.389,3.093,7.67,6.911,7.67h41.483c3.82,0,6.916-4.281,6.916-7.67C129.386,39.384,127.044,35.394,123.917,34.8z"/>
</g>
<circle fill="#2D3E50" cx="120.052" cy="197.895" r="19.44"/>
<circle fill="#2D3E50" cx="39.358" cy="33.125" r="19.439"/>
<circle fill="#2D3E50" cx="276.957" cy="98.581" r="19.439"/>
<path fill="#FFCD61" d="M119.647,184.354c0.222-0.512,0.587-0.512,0.809,0l3.202,7.346c0.222,0.512,0.858,0.975,1.416,1.029
	l7.974,0.773c0.556,0.055,0.667,0.402,0.251,0.771l-5.999,5.314c-0.417,0.369-0.661,1.117-0.541,1.662l1.727,7.824
	c0.123,0.543-0.173,0.758-0.654,0.477l-6.907-4.061c-0.482-0.283-1.268-0.283-1.748,0l-6.906,4.061
	c-0.482,0.281-0.778,0.066-0.656-0.477l1.728-7.824c0.12-0.545-0.124-1.293-0.541-1.662l-5.997-5.314
	c-0.417-0.369-0.307-0.717,0.251-0.771l7.975-0.773c0.556-0.055,1.193-0.518,1.415-1.029L119.647,184.354z"/>
<path fill="#FFCD61" d="M269.475,107.08c0,1.695,1.184,2.356,2.629,1.475l13.705-8.371c1.445-0.88,1.445-2.326,0-3.209
	l-13.705-8.369c-1.445-0.881-2.629-0.217-2.629,1.477V107.08z"/>
<path fill="#FFCD61" d="M50.55,31.509h-1.625c-0.376,0-0.771-0.296-0.878-0.655l-0.938-2.272c-0.176-0.329-0.107-0.817,0.158-1.082
	l1.148-1.146c0.264-0.268,0.264-0.698,0-0.966l-1.32-1.32c-0.267-0.266-0.703-0.266-0.967,0l-1.148,1.147
	c-0.265,0.266-0.751,0.339-1.082,0.156l-2.272-0.935c-0.359-0.106-0.653-0.504-0.653-0.879V21.93c0-0.376-0.309-0.681-0.684-0.681
	h-1.864c-0.377,0-0.684,0.305-0.684,0.681v1.627c0,0.375-0.296,0.772-0.656,0.879l-2.273,0.935
	c-0.327,0.183-0.815,0.109-1.081-0.156l-1.148-1.147c-0.264-0.266-0.697-0.266-0.964,0l-1.32,1.32c-0.265,0.268-0.265,0.698,0,0.966
	l1.148,1.146c0.264,0.265,0.332,0.753,0.152,1.082l-0.936,2.272c-0.105,0.359-0.501,0.655-0.877,0.655h-1.625
	c-0.374,0-0.681,0.31-0.681,0.686v1.863c0,0.376,0.307,0.685,0.681,0.685h1.625c0.376,0,0.771,0.292,0.877,0.654l0.936,2.272
	c0.182,0.329,0.112,0.815-0.152,1.079L30.3,39.896c-0.265,0.265-0.265,0.699,0,0.967l1.32,1.321c0.267,0.264,0.7,0.264,0.964,0
	l1.148-1.149c0.265-0.265,0.754-0.338,1.084-0.155l2.27,0.936c0.359,0.105,0.656,0.5,0.656,0.876v1.627
	c0,0.373,0.307,0.683,0.684,0.683h1.864c0.375,0,0.684-0.31,0.684-0.683v-1.627c0-0.376,0.294-0.771,0.653-0.876l2.272-0.936
	c0.328-0.183,0.816-0.109,1.082,0.155l1.148,1.149c0.264,0.265,0.7,0.265,0.967,0l1.32-1.321c0.264-0.268,0.264-0.702,0-0.967
	l-1.151-1.148c-0.264-0.264-0.331-0.753-0.155-1.079l0.938-2.272c0.106-0.362,0.501-0.654,0.878-0.654h1.625
	c0.375,0,0.684-0.309,0.684-0.685v-1.863C51.234,31.818,50.925,31.509,50.55,31.509z M39.356,36.07
	c-1.627,0-2.943-1.319-2.943-2.946s1.316-2.944,2.943-2.944c1.628,0,2.946,1.317,2.946,2.944S40.984,36.07,39.356,36.07z"/>
<g>
	
		<line fill="#FFFFFF" stroke="#FFFFFF" stroke-linecap="round" stroke-miterlimit="10" x1="308.215" y1="84.855" x2="302.852" y2="84.855"/>
	
		<line fill="#FFFFFF" stroke="#FFFFFF" stroke-linecap="round" stroke-miterlimit="10" x1="318.699" y1="80.604" x2="308.969" y2="80.604"/>
</g>
<g>
	
		<line fill="#FFFFFF" stroke="#FFFFFF" stroke-linecap="round" stroke-miterlimit="10" x1="233.543" y1="48.931" x2="228.18" y2="48.931"/>
	
		<line fill="#FFFFFF" stroke="#FFFFFF" stroke-linecap="round" stroke-miterlimit="10" x1="244.027" y1="44.679" x2="234.297" y2="44.679"/>
</g>
<g>
	
		<line fill="#FFFFFF" stroke="#FFFFFF" stroke-linecap="round" stroke-miterlimit="10" x1="68.562" y1="17.348" x2="63.198" y2="17.348"/>
	
		<line fill="#FFFFFF" stroke="#FFFFFF" stroke-linecap="round" stroke-miterlimit="10" x1="79.046" y1="13.096" x2="69.315" y2="13.096"/>
</g>
<g>
	
		<line fill="#FFFFFF" stroke="#FFFFFF" stroke-linecap="round" stroke-miterlimit="10" x1="76.931" y1="66.271" x2="71.568" y2="66.271"/>
	
		<line fill="#FFFFFF" stroke="#FFFFFF" stroke-linecap="round" stroke-miterlimit="10" x1="87.416" y1="62.019" x2="77.685" y2="62.019"/>
</g>
<g>
	
		<line fill="#FFFFFF" stroke="#FFFFFF" stroke-linecap="round" stroke-miterlimit="10" x1="269.674" y1="217.838" x2="264.311" y2="217.838"/>
	
		<line fill="#FFFFFF" stroke="#FFFFFF" stroke-linecap="round" stroke-miterlimit="10" x1="280.158" y1="213.586" x2="270.428" y2="213.586"/>
</g>
<g>
	
		<line fill="#FFFFFF" stroke="#FFFFFF" stroke-linecap="round" stroke-miterlimit="10" x1="76.485" y1="215.188" x2="71.122" y2="215.188"/>
	
		<line fill="#FFFFFF" stroke="#FFFFFF" stroke-linecap="round" stroke-miterlimit="10" x1="86.97" y1="210.936" x2="77.239" y2="210.936"/>
</g>
<g>
	
		<line fill="#FFFFFF" stroke="#FFFFFF" stroke-linecap="round" stroke-miterlimit="10" x1="306.354" y1="119.181" x2="311.717" y2="119.181"/>
	
		<line fill="#FFFFFF" stroke="#FFFFFF" stroke-linecap="round" stroke-miterlimit="10" x1="295.869" y1="123.432" x2="305.6" y2="123.432"/>
</g>
<g>
	
		<line fill="#FFFFFF" stroke="#FFFFFF" stroke-linecap="round" stroke-miterlimit="10" x1="240.877" y1="22.391" x2="219.418" y2="22.391"/>
	
		<line fill="#FFFFFF" stroke="#FFFFFF" stroke-linecap="round" stroke-miterlimit="10" x1="236.104" y1="17.121" x2="214.643" y2="17.121"/>
	
		<line fill="#FFFFFF" stroke="#FFFFFF" stroke-linecap="round" stroke-miterlimit="10" x1="223.982" y1="27.075" x2="202.525" y2="27.075"/>
	
		<line fill="#FFFFFF" stroke="#FFFFFF" stroke-linecap="round" stroke-miterlimit="10" x1="217.203" y1="22.391" x2="211.369" y2="22.391"/>
	
		<line fill="#FFFFFF" stroke="#FFFFFF" stroke-linecap="round" stroke-miterlimit="10" x1="204.299" y1="17.121" x2="192.986" y2="17.121"/>
</g>
<g>
	
		<line fill="#FFFFFF" stroke="#FFFFFF" stroke-linecap="round" stroke-miterlimit="10" x1="198.578" y1="185.768" x2="177.119" y2="185.768"/>
	
		<line fill="#FFFFFF" stroke="#FFFFFF" stroke-linecap="round" stroke-miterlimit="10" x1="193.805" y1="180.498" x2="172.344" y2="180.498"/>
	
		<line fill="#FFFFFF" stroke="#FFFFFF" stroke-linecap="round" stroke-miterlimit="10" x1="181.684" y1="190.451" x2="160.226" y2="190.451"/>
	
		<line fill="#FFFFFF" stroke="#FFFFFF" stroke-linecap="round" stroke-miterlimit="10" x1="174.904" y1="185.768" x2="169.07" y2="185.768"/>
	
		<line fill="#FFFFFF" stroke="#FFFFFF" stroke-linecap="round" stroke-miterlimit="10" x1="162" y1="180.498" x2="150.687" y2="180.498"/>
</g>
<g>
	
		<line fill="#FFFFFF" stroke="#FFFFFF" stroke-linecap="round" stroke-miterlimit="10" x1="141.992" y1="15.222" x2="159.943" y2="15.222"/>
	
		<line fill="#FFFFFF" stroke="#FFFFFF" stroke-linecap="round" stroke-miterlimit="10" x1="147.664" y1="19.906" x2="152.542" y2="19.906"/>
	
		<line fill="#FFFFFF" stroke="#FFFFFF" stroke-linecap="round" stroke-miterlimit="10" x1="158.458" y1="25.176" x2="167.923" y2="25.176"/>
</g>
<g>
	
		<line fill="#FFFFFF" stroke="#FFFFFF" stroke-linecap="round" stroke-miterlimit="10" x1="14.516" y1="147.363" x2="32.467" y2="147.363"/>
	
		<line fill="#FFFFFF" stroke="#FFFFFF" stroke-linecap="round" stroke-miterlimit="10" x1="20.188" y1="152.049" x2="25.068" y2="152.049"/>
	
		<line fill="#FFFFFF" stroke="#FFFFFF" stroke-linecap="round" stroke-miterlimit="10" x1="30.984" y1="157.318" x2="40.448" y2="157.318"/>
</g>
<g>
	
		<line fill="#FFFFFF" stroke="#FFFFFF" stroke-linecap="round" stroke-miterlimit="10" x1="185.07" y1="208.377" x2="203.021" y2="208.377"/>
	
		<line fill="#FFFFFF" stroke="#FFFFFF" stroke-linecap="round" stroke-miterlimit="10" x1="190.742" y1="213.062" x2="195.623" y2="213.062"/>
	
		<line fill="#FFFFFF" stroke="#FFFFFF" stroke-linecap="round" stroke-miterlimit="10" x1="201.539" y1="218.332" x2="211.002" y2="218.332"/>
</g>
</svg>
